# xmcd
#
# Track frame offsets: 
#        150
#        17423
#        37810
#        60948
#        85904
#        100509
#        132334
#        159638
#        185806
#        225663
#        248174
#        271250
#        306161
#        331431
#
# Disc length: 4731 seconds
#
# Revision: 3
# Processed by: cddbd v1.5.2PL0 Copyright (c) Steve Scherf et al.
# Submitted via: ExactAudioCopy v1.0b4
#
DISCID=ac12790e
DTITLE=Green Peter - The Best of Peter Green 1977-81
DYEAR=1997
DGENRE=Blues Rock
TTITLE0=In The Skies
TTITLE1=Loser Two Times
TTITLE2=Cryin' Won't Bring You Back
TTITLE3=Last Train To San Antone
TTITLE4=Apostle
TTITLE5=Little Dreamer
TTITLE6=The Clown
TTITLE7=Gotta See Her Tonight
TTITLE8=White Sky (Love That Evil Woman)
TTITLE9=Carry My Love
TTITLE10=Slabo Day
TTITLE11=A Fool No More
TTITLE12=Baby When The Sun Goes Down
TTITLE13=Funky Jam
EXTD=
EXTT0=
EXTT1=
EXTT2=
EXTT3=
EXTT4=
EXTT5=
EXTT6=
EXTT7=
EXTT8=
EXTT9=
EXTT10=
EXTT11=
EXTT12=
EXTT13=
PLAYORDER=
